<svg width="64" height="64" viewBox="0 0 64 64" fill="none" xmlns="http://www.w3.org/2000/svg">
<g clip-path="url(#clip0_33_14)">
<path fill-rule="evenodd" clip-rule="evenodd" d="M22.7047 12.5757C32.9977 -0.913437 59.2892 14.104 63.81 27.1727C62.9603 15.9032 50.9627 -1.01217 32.3322 0.0476066C-3.69621 2.09678 1.54444 51.8442 32.3322 50.4004C37.8447 50.4011 42.1292 45.5589 42.1499 40.5091C42.177 33.8989 36.9095 31.2226 32.3322 30.733C25.2185 29.9724 20.8193 24.8989 20.702 19.1028C20.6606 17.0502 20.8263 15.6832 22.7049 12.5757H22.7047Z" fill="url(#paint0_linear_33_14)"/>
<path fill-rule="evenodd" clip-rule="evenodd" d="M32.3321 10.7888C27.1687 10.7939 24.0401 14.9737 24.032 19.103C24.0265 22.0241 26.3891 26.8346 32.3321 27.4031C50.485 29.1397 48.9998 53.0931 32.3321 53.9938C14.5032 54.957 -2.65526 36.0939 6.24235 13.2416C-10.8479 39.0915 10.2454 64.9446 32.3321 63.9736C62.168 62.662 61.5426 22.8966 33.8282 20.1122C32.3904 19.9677 32.3098 19.2213 32.3321 18.6004C32.3605 17.8134 32.8264 17.0924 33.8282 17.0886C38.7993 17.0679 44.8176 18.6332 50.837 24.682C58.1688 32.0497 60.7055 44.8058 52.8508 56.9413C76.253 26.9654 46.4401 10.3706 32.3321 10.7892V10.7888Z" fill="url(#paint1_linear_33_14)"/>
<path fill-rule="evenodd" clip-rule="evenodd" d="M22.7047 12.5757C32.9977 -0.913464 59.2892 14.104 63.81 27.1726C63.2496 19.7399 57.8426 9.97319 48.8821 4.51227C36.1708 -1.36296 21.3509 0.778544 20.7607 17.3807C20.9127 16.077 21.388 14.7541 22.7047 12.5757Z" fill="#072369"/>
<path fill-rule="evenodd" clip-rule="evenodd" d="M42.1199 41.2073C23.8466 43.0611 8.24426 30.6242 12.1714 9.77893C0.833739 24.7418 9.64968 51.4642 32.3322 50.4004C37.5901 50.401 41.7307 45.9961 42.1201 41.2073H42.1199Z" fill="#072369"/>
<path fill-rule="evenodd" clip-rule="evenodd" d="M32.3322 53.9936C14.5033 54.9568 -2.6552 36.0937 6.24241 13.2415C-1.56174 28.3651 2.73748 49.45 19.7529 56.2951C30.5321 60.6307 45.3623 58.643 48.2113 45.3587C49.7387 38.2365 45.5081 30.2769 35.2096 27.8987C50.2696 31.7612 48.0623 53.1435 32.3322 53.9936Z" fill="#0C152B"/>
<path fill-rule="evenodd" clip-rule="evenodd" d="M50.8371 24.6816C58.1689 32.0493 60.7055 44.8054 52.8509 56.9409C67.1527 35.7233 54.4147 14.9961 34.4132 14.7558C30.2385 14.7057 28.72 18.8783 33.1798 19.9811C32.3651 19.7048 32.3141 19.1103 32.3324 18.6002C32.3608 17.8132 32.8267 17.0922 33.8285 17.0884C38.7996 17.0677 44.8179 18.633 50.8373 24.6819L50.8371 24.6816Z" fill="#072369"/>
</g>
<defs>
<linearGradient id="paint0_linear_33_14" x1="7.23778" y1="25.216" x2="63.81" y2="25.216" gradientUnits="userSpaceOnUse">
<stop stop-color="#FEF758"/>
<stop offset="1" stop-color="#FF10DB"/>
</linearGradient>
<linearGradient id="paint1_linear_33_14" x1="0.00014042" y1="37.3906" x2="61.5268" y2="37.3906" gradientUnits="userSpaceOnUse">
<stop stop-color="#9C68FF"/>
<stop offset="1" stop-color="#5A00FF"/>
</linearGradient>
<clipPath id="clip0_33_14">
<rect width="64" height="64" fill="white"/>
</clipPath>
</defs>
</svg>
