<svg width="198" height="64" viewBox="0 0 198 64" fill="none" xmlns="http://www.w3.org/2000/svg">
<g clip-path="url(#clip0_103_9)">
<path fill-rule="evenodd" clip-rule="evenodd" d="M22.7047 12.5757C32.9977 -0.913437 59.2892 14.104 63.81 27.1727C62.9603 15.9032 50.9627 -1.01217 32.3322 0.0476066C-3.69621 2.09678 1.54443 51.8442 32.3322 50.4004C37.8447 50.4011 42.1292 45.5589 42.1499 40.5091C42.177 33.8989 36.9095 31.2226 32.3322 30.733C25.2185 29.9724 20.8193 24.8989 20.702 19.1028C20.6606 17.0502 20.8263 15.6832 22.7049 12.5757H22.7047Z" fill="url(#paint0_linear_103_9)"/>
<path fill-rule="evenodd" clip-rule="evenodd" d="M32.3321 10.7888C27.1687 10.7939 24.0401 14.9737 24.032 19.103C24.0265 22.0241 26.3891 26.8346 32.3321 27.4031C50.485 29.1397 48.9998 53.0931 32.3321 53.9938C14.5032 54.957 -2.65526 36.0939 6.24235 13.2416C-10.8479 39.0915 10.2454 64.9446 32.3321 63.9736C62.168 62.662 61.5426 22.8966 33.8282 20.1122C32.3904 19.9677 32.3098 19.2213 32.3321 18.6004C32.3605 17.8134 32.8264 17.0924 33.8282 17.0886C38.7993 17.0679 44.8176 18.6332 50.837 24.682C58.1688 32.0497 60.7055 44.8058 52.8508 56.9413C76.253 26.9654 46.4401 10.3706 32.3321 10.7892V10.7888Z" fill="url(#paint1_linear_103_9)"/>
<path fill-rule="evenodd" clip-rule="evenodd" d="M22.7047 12.5757C32.9977 -0.913465 59.2892 14.104 63.81 27.1726C63.2496 19.7399 57.8426 9.97319 48.8821 4.51227C36.1708 -1.36296 21.3509 0.778545 20.7607 17.3807C20.9127 16.077 21.388 14.7541 22.7047 12.5757V12.5757Z" fill="#072369"/>
<path fill-rule="evenodd" clip-rule="evenodd" d="M42.1199 41.2073C23.8466 43.0611 8.24426 30.6242 12.1714 9.77893C0.833739 24.7418 9.64968 51.4642 32.3322 50.4004C37.5901 50.401 41.7307 45.9961 42.1201 41.2073H42.1199Z" fill="#072369"/>
<path fill-rule="evenodd" clip-rule="evenodd" d="M32.3322 53.9936C14.5033 54.9568 -2.6552 36.0937 6.24241 13.2415C-1.56174 28.3651 2.73748 49.45 19.7529 56.2951C30.5321 60.6307 45.3623 58.643 48.2113 45.3587C49.7387 38.2365 45.5081 30.2769 35.2096 27.8987C50.2696 31.7612 48.0623 53.1435 32.3322 53.9936V53.9936Z" fill="#0C152B"/>
<path fill-rule="evenodd" clip-rule="evenodd" d="M50.8371 24.6816C58.1689 32.0493 60.7055 44.8054 52.8509 56.9409C67.1527 35.7233 54.4147 14.9961 34.4132 14.7558C30.2385 14.7057 28.72 18.8783 33.1798 19.9811C32.3651 19.7048 32.3141 19.1103 32.3324 18.6002C32.3608 17.8132 32.8267 17.0922 33.8285 17.0884C38.7996 17.0677 44.8179 18.633 50.8373 24.6819L50.8371 24.6816Z" fill="#072369"/>
</g>
<path d="M93.328 32.264C94.288 32.568 95.04 33.08 95.584 33.8C96.128 34.504 96.4 35.376 96.4 36.416C96.4 37.888 95.824 39.024 94.672 39.824C93.536 40.608 91.872 41 89.68 41H80.992V24.2H89.2C91.248 24.2 92.816 24.592 93.904 25.376C95.008 26.16 95.56 27.224 95.56 28.568C95.56 29.384 95.36 30.112 94.96 30.752C94.576 31.392 94.032 31.896 93.328 32.264ZM84.856 27.128V31.088H88.72C89.68 31.088 90.408 30.92 90.904 30.584C91.4 30.248 91.648 29.752 91.648 29.096C91.648 28.44 91.4 27.952 90.904 27.632C90.408 27.296 89.68 27.128 88.72 27.128H84.856ZM89.392 38.072C90.416 38.072 91.184 37.904 91.696 37.568C92.224 37.232 92.488 36.712 92.488 36.008C92.488 34.616 91.456 33.92 89.392 33.92H84.856V38.072H89.392Z" fill="white"/>
<path d="M104.288 27.896C106.288 27.896 107.824 28.376 108.896 29.336C109.968 30.28 110.504 31.712 110.504 33.632V41H107V39.392C106.296 40.592 104.984 41.192 103.064 41.192C102.072 41.192 101.208 41.024 100.472 40.688C99.7516 40.352 99.1996 39.888 98.8156 39.296C98.4316 38.704 98.2396 38.032 98.2396 37.28C98.2396 36.08 98.6876 35.136 99.5836 34.448C100.496 33.76 101.896 33.416 103.784 33.416H106.76C106.76 32.6 106.512 31.976 106.016 31.544C105.52 31.096 104.776 30.872 103.784 30.872C103.096 30.872 102.416 30.984 101.744 31.208C101.088 31.416 100.528 31.704 100.064 32.072L98.7196 29.456C99.4236 28.96 100.264 28.576 101.24 28.304C102.232 28.032 103.248 27.896 104.288 27.896ZM104 38.672C104.64 38.672 105.208 38.528 105.704 38.24C106.2 37.936 106.552 37.496 106.76 36.92V35.6H104.192C102.656 35.6 101.888 36.104 101.888 37.112C101.888 37.592 102.072 37.976 102.44 38.264C102.824 38.536 103.344 38.672 104 38.672Z" fill="white"/>
<path d="M119.436 35.936L117.636 37.712V41H113.892V23.192H117.636V33.272L123.108 28.088H127.572L122.196 33.56L128.052 41H123.516L119.436 35.936Z" fill="white"/>
<path d="M133.658 41.192C132.586 41.192 131.538 41.064 130.514 40.808C129.49 40.536 128.674 40.2 128.066 39.8L129.314 37.112C129.89 37.48 130.586 37.784 131.402 38.024C132.218 38.248 133.018 38.36 133.802 38.36C135.386 38.36 136.178 37.968 136.178 37.184C136.178 36.816 135.962 36.552 135.53 36.392C135.098 36.232 134.434 36.096 133.538 35.984C132.482 35.824 131.61 35.64 130.922 35.432C130.234 35.224 129.634 34.856 129.122 34.328C128.626 33.8 128.378 33.048 128.378 32.072C128.378 31.256 128.61 30.536 129.074 29.912C129.554 29.272 130.242 28.776 131.138 28.424C132.05 28.072 133.122 27.896 134.354 27.896C135.266 27.896 136.17 28 137.066 28.208C137.978 28.4 138.73 28.672 139.322 29.024L138.074 31.688C136.938 31.048 135.698 30.728 134.354 30.728C133.554 30.728 132.954 30.84 132.554 31.064C132.154 31.288 131.954 31.576 131.954 31.928C131.954 32.328 132.17 32.608 132.602 32.768C133.034 32.928 133.722 33.08 134.666 33.224C135.722 33.4 136.586 33.592 137.258 33.8C137.93 33.992 138.514 34.352 139.01 34.88C139.506 35.408 139.754 36.144 139.754 37.088C139.754 37.888 139.514 38.6 139.034 39.224C138.554 39.848 137.85 40.336 136.922 40.688C136.01 41.024 134.922 41.192 133.658 41.192Z" fill="white"/>
<path d="M142.328 24.2H149.96C151.784 24.2 153.392 24.552 154.784 25.256C156.192 25.944 157.28 26.92 158.048 28.184C158.832 29.448 159.224 30.92 159.224 32.6C159.224 34.28 158.832 35.752 158.048 37.016C157.28 38.28 156.192 39.264 154.784 39.968C153.392 40.656 151.784 41 149.96 41H142.328V24.2ZM149.768 37.808C151.448 37.808 152.784 37.344 153.776 36.416C154.784 35.472 155.288 34.2 155.288 32.6C155.288 31 154.784 29.736 153.776 28.808C152.784 27.864 151.448 27.392 149.768 27.392H146.216V37.808H149.768Z" fill="white"/>
<path d="M172.986 37.4H165.186L163.698 41H159.714L167.202 24.2H171.042L178.554 41H174.474L172.986 37.4ZM171.762 34.448L169.098 28.016L166.434 34.448H171.762Z" fill="white"/>
<path d="M188.198 41.288C186.454 41.288 184.878 40.912 183.47 40.16C182.078 39.408 180.982 38.376 180.182 37.064C179.398 35.736 179.006 34.248 179.006 32.6C179.006 30.952 179.398 29.472 180.182 28.16C180.982 26.832 182.078 25.792 183.47 25.04C184.878 24.288 186.454 23.912 188.198 23.912C189.942 23.912 191.51 24.288 192.902 25.04C194.294 25.792 195.39 26.832 196.19 28.16C196.99 29.472 197.39 30.952 197.39 32.6C197.39 34.248 196.99 35.736 196.19 37.064C195.39 38.376 194.294 39.408 192.902 40.16C191.51 40.912 189.942 41.288 188.198 41.288ZM188.198 37.976C189.19 37.976 190.086 37.752 190.886 37.304C191.686 36.84 192.31 36.2 192.758 35.384C193.222 34.568 193.454 33.64 193.454 32.6C193.454 31.56 193.222 30.632 192.758 29.816C192.31 29 191.686 28.368 190.886 27.92C190.086 27.456 189.19 27.224 188.198 27.224C187.206 27.224 186.31 27.456 185.51 27.92C184.71 28.368 184.078 29 183.614 29.816C183.166 30.632 182.942 31.56 182.942 32.6C182.942 33.64 183.166 34.568 183.614 35.384C184.078 36.2 184.71 36.84 185.51 37.304C186.31 37.752 187.206 37.976 188.198 37.976Z" fill="white"/>
<defs>
<linearGradient id="paint0_linear_103_9" x1="7.23778" y1="25.216" x2="63.81" y2="25.216" gradientUnits="userSpaceOnUse">
<stop stop-color="#FEF758"/>
<stop offset="1" stop-color="#FF10DB"/>
</linearGradient>
<linearGradient id="paint1_linear_103_9" x1="0.00014042" y1="37.3906" x2="61.5268" y2="37.3906" gradientUnits="userSpaceOnUse">
<stop stop-color="#9C68FF"/>
<stop offset="1" stop-color="#5A00FF"/>
</linearGradient>
<clipPath id="clip0_103_9">
<rect width="64" height="64" fill="white"/>
</clipPath>
</defs>
</svg>
